# xmcd CD database file
#
# Track frame offsets:
#	150
#	24922
#	47655
#	71445
#	92832
#	113332
#	134735
#	159680
#	175422
#	200065
#	222857
#	251930
#	274692
#
# Disc length: 3900 seconds
#
# Revision: 1
# Processed by: cddbd v1.5.2PL0 Copyright (c) Steve Scherf et al.
# Submitted via: CDex 1.51
#
DISCID=bf0f3a0d
DTITLE=Duke Jordan - Two Dukes Named Duke
DYEAR=1997
DGENRE=Jazz
TTITLE0=Jordu
TTITLE1=Sophisicated Lady
TTITLE2=Fuji Bluse
TTITLE3=Take The A Train
TTITLE4=Love Train
TTITLE5=Call Me To Your Arms
TTITLE6=Satin Doll
TTITLE7=Mountain Ram Blues
TTITLE8=Solitude
TTITLE9=Foreecaster
TTITLE10=Chocolate Shake
TTITLE11=Annelise
TTITLE12=Holding Hands -I Need Your Love
EXTD=YEAR: 1997
EXTT0=
EXTT1=
EXTT2=
EXTT3=
EXTT4=
EXTT5=
EXTT6=
EXTT7=
EXTT8=
EXTT9=
EXTT10=
EXTT11=
EXTT12=
PLAYORDER=
